HIERARCHY
ROOT Hips
{
	OFFSET	0.000000	0.000000	0.000000
	CHANNELS 6 Xposition Yposition Zposition Zrotation Xrotation Yrotation
	JOINT LeftUpLeg
	{
		OFFSET	12.811937	-7.635976	0.557276
		CHANNELS 3 Zrotation Xrotation Yrotation
		JOINT LeftLeg
		{
			OFFSET	-0.429270	-42.206159	-1.204951
			CHANNELS 3 Zrotation Xrotation Yrotation
			JOINT LeftFoot
			{
				OFFSET	-2.112259	-42.464481	-3.973220
				CHANNELS 3 Zrotation Xrotation Yrotation
				JOINT LeftFootHeel
				{
					OFFSET	0.387196	-5.329707	-3.419729
					CHANNELS 3 Zrotation Xrotation Yrotation
					End Site
					{
						OFFSET	0.327567	-0.000003	16.505428
					}
				}
			}
		}
	}
	JOINT RightUpLeg
	{
		OFFSET	-12.811937	-7.635976	0.557276
		CHANNELS 3 Zrotation Xrotation Yrotation
		JOINT RightLeg
		{
			OFFSET	0.429270	-42.206159	-1.204951
			CHANNELS 3 Zrotation Xrotation Yrotation
			JOINT RightFoot
			{
				OFFSET	2.112259	-42.464481	-3.973220
				CHANNELS 3 Zrotation Xrotation Yrotation
				JOINT RightFootHeel
				{
					OFFSET	-0.387198	-5.329707	-3.419729
					CHANNELS 3 Zrotation Xrotation Yrotation
					End Site
					{
						OFFSET	-0.327566	-0.000003	16.505428
					}
				}
			}
		}
	}
	JOINT Spine
	{
		OFFSET	0.000000	13.731315	-1.007646
		CHANNELS 3 Zrotation Xrotation Yrotation
		JOINT Spine1
		{
			OFFSET	0.000000	12.091746	-0.604589
			CHANNELS 3 Zrotation Xrotation Yrotation
			JOINT LeftShoulder
			{
				OFFSET	5.746115	20.990027	-0.833816
				CHANNELS 3 Zrotation Xrotation Yrotation
				JOINT LeftArm
				{
					OFFSET	10.881538	-1.359258	0.219250
					CHANNELS 3 Zrotation Xrotation Yrotation
					JOINT LeftForeArm
					{
						OFFSET	4.390314	-31.537147	0.202818
						CHANNELS 3 Zrotation Xrotation Yrotation
						JOINT LeftHand
						{
							OFFSET	3.168650	-24.865023	5.373370
							CHANNELS 3 Zrotation Xrotation Yrotation
							End Site
							{
								OFFSET	1.457528	-10.806075	2.170267
							}
						}
					}
				}
			}
			JOINT RightShoulder
			{
				OFFSET	-5.746115	20.990027	-0.833816
				CHANNELS 3 Zrotation Xrotation Yrotation
				JOINT RightArm
				{
					OFFSET	-10.881538	-1.359258	0.219250
					CHANNELS 3 Zrotation Xrotation Yrotation
					JOINT RightForeArm
					{
						OFFSET	-4.390314	-31.537147	0.202818
						CHANNELS 3 Zrotation Xrotation Yrotation
						JOINT RightHand
						{
							OFFSET	-3.168650	-24.865023	5.373370
							CHANNELS 3 Zrotation Xrotation Yrotation
							End Site
							{
								OFFSET	-1.457528	-10.806075	2.170267
							}
						}
					}
				}
			}
			JOINT Neck
			{
				OFFSET	0.000000	27.075639	0.680489
				CHANNELS 3 Zrotation Xrotation Yrotation
				JOINT Head
				{
					OFFSET	0.000000	12.391287	1.239129
					CHANNELS 3 Zrotation Xrotation Yrotation
					End Site
					{
						OFFSET	0.000000	13.818691	-0.105853
					}
				}
			}
		}
	}
}
MOTION
Frames:     11
Frame Time: 0.016667
0.000000	100.443063	0.000000	1.554815	0.035369	-2.431796	0.866260	-0.788268	-3.180890	-1.907963	2.127859	4.990598	-0.109275	-1.122109	-0.229962	0.	0.	0.	-1.357662	1.154065	-0.829546	-0.906716	0.243842	1.876608	0.239564	-1.331738	0.150353	0.	0.	0.	-0.646740	2.864689	-1.461084	-0.675412	-0.445966	3.045938	0.817446	-1.593828	-1.821402	5.540506	12.519276	85.301048	-13.785476	5.184773	-87.151764	-1.610020	1.148339	-2.301633	1.694538	-2.361800	-2.429870	-1.749171	0.345455	3.673540	-1.745051	0.771161	3.386875	3.474303	-0.128686	38.411972	0.747455	-2.964313	-2.270376	-0.074092	1.316763	-5.691774	
0.000925	100.441610	0.003386	1.548193	0.034367	-2.447535	0.871206	-0.788376	-3.178633	-1.906715	2.129141	5.004103	-0.109275	-1.122109	-0.229962	0.	0.	0.	-1.351405	1.154974	-0.813773	-0.906716	0.243842	1.876608	0.239564	-1.331738	0.150353	0.	0.	0.	-0.640955	2.865794	-1.445307	-0.675412	-0.445966	3.045938	0.817446	-1.593828	-1.821402	5.540506	12.519276	85.301048	-13.790273	5.182637	-87.173386	-1.612363	1.152594	-2.279447	1.694538	-2.361800	-2.429870	-1.749171	0.345455	3.673540	-1.742830	0.755431	3.388371	3.467446	-0.114585	38.408379	0.747455	-2.964313	-2.270376	-0.074033	1.320187	-5.691197	
0.000925	100.441610	0.003386	1.548193	0.034367	-2.447535	0.870280	-0.789208	-3.185458	-1.906090	2.129795	5.010946	-0.109275	-1.122109	-0.229962	0.	0.	0.	-1.351405	1.154974	-0.813773	-0.906716	0.243842	1.876608	0.239564	-1.331738	0.150353	0.	0.	0.	-0.640955	2.865794	-1.445307	-0.675412	-0.445966	3.045938	0.817446	-1.593828	-1.821402	5.540506	12.519276	85.301048	-13.790273	5.182637	-87.173386	-1.612363	1.152594	-2.279447	1.694538	-2.361800	-2.429870	-1.749171	0.345455	3.673540	-1.741792	0.748083	3.389074	3.466841	-0.107247	38.407219	0.747455	-2.964313	-2.270376	-0.074033	1.320187	-5.691197	
0.002353	100.439352	0.008622	1.537965	0.032812	-2.471853	0.878789	-0.788602	-3.175674	-1.904755	2.131177	5.025491	-0.109275	-1.122109	-0.229962	0.	0.	0.	-1.341745	1.156395	-0.789404	-0.906716	0.243842	1.876608	0.239564	-1.331738	0.150353	0.	0.	0.	-0.632022	2.867517	-1.420932	-0.675412	-0.445966	3.045938	0.817446	-1.593828	-1.821402	5.540506	12.519276	85.301048	-13.788512	5.172005	-87.196274	-1.623524	1.150723	-2.256756	1.694538	-2.361800	-2.429870	-1.749171	0.345455	3.673540	-1.740376	0.738056	3.390035	3.466018	-0.097231	38.405632	0.747455	-2.964313	-2.270376	-0.074033	1.320187	-5.691197	
0.003321	100.437821	0.012181	1.531017	0.031768	-2.488372	0.883849	-0.788826	-3.174262	-1.903357	2.132608	5.040617	-0.109275	-1.122109	-0.229962	0.	0.	0.	-1.335183	1.157351	-0.772851	-0.906716	0.243842	1.876608	0.239564	-1.331738	0.150353	0.	0.	0.	-0.625954	2.868678	-1.404374	-0.675412	-0.445966	3.045938	0.817446	-1.593828	-1.821402	5.540506	12.519276	85.301048	-13.787783	5.167574	-87.205811	-1.628176	1.149949	-2.247296	1.694538	-2.361800	-2.429870	-1.749171	0.345455	3.673540	-1.740376	0.738056	3.390035	3.466018	-0.097231	38.405632	0.747455	-2.964313	-2.270376	-0.074033	1.320187	-5.691197	
0.004291	100.436281	0.015752	1.524048	0.030723	-2.504942	0.889062	-0.788924	-3.171840	-1.902051	2.133947	5.054786	-0.109275	-1.122109	-0.229962	0.	0.	0.	-1.328602	1.158315	-0.756247	-0.906716	0.243842	1.876608	0.239564	-1.331738	0.150353	0.	0.	0.	-0.619869	2.869846	-1.387766	-0.675412	-0.445966	3.045938	0.817446	-1.593828	-1.821402	5.540506	12.519276	85.301048	-13.787783	5.167574	-87.205811	-1.628176	1.149949	-2.247296	1.694538	-2.361800	-2.429870	-1.749171	0.345455	3.673540	-1.740376	0.738056	3.390035	3.459697	-0.097856	38.408489	0.747455	-2.964313	-2.270376	-0.074033	1.320187	-5.691197	
0.004774	100.435525	0.017538	1.520571	0.030202	-2.513209	0.889519	-0.790871	-3.186399	-1.899954	2.136108	5.077659	-0.109275	-1.122109	-0.229962	0.	0.	0.	-1.325319	1.158799	-0.747964	-0.906716	0.243842	1.876608	0.239564	-1.331738	0.150353	0.	0.	0.	-0.616833	2.870433	-1.379481	-0.675412	-0.445966	3.045938	0.817446	-1.593828	-1.821402	5.533399	12.515439	85.288513	-13.781832	5.152301	-87.208748	-1.634104	1.147157	-2.232519	1.694538	-2.361800	-2.429870	-1.749171	0.345455	3.673540	-1.740376	0.738056	3.390035	3.435186	-0.100119	38.420078	0.747455	-2.964313	-2.270376	-0.074033	1.320187	-5.691197	
0.006793	100.432318	0.024990	1.506014	0.028029	-2.547812	0.902050	-0.789606	-3.169307	-1.898335	2.137747	5.095173	-0.109275	-1.122109	-0.229962	0.	0.	0.	-1.311574	1.160813	-0.713290	-0.906716	0.243842	1.876608	0.239564	-1.331738	0.150353	0.	0.	0.	-0.604124	2.872876	-1.344798	-0.675412	-0.445966	3.045938	0.817446	-1.593828	-1.821402	5.520853	12.497009	85.187256	-13.763509	5.091871	-87.171059	-1.626930	1.161251	-2.233769	1.693377	-2.359944	-2.432208	-1.747946	0.343581	3.675774	-1.740376	0.738056	3.390035	3.393352	-0.101657	38.447929	0.799152	-2.921072	-2.283432	-0.119420	1.279060	-5.697289	
0.007325	100.431465	0.026955	1.502176	0.027462	-2.556939	0.904748	-0.789806	-3.169235	-1.897496	2.138592	5.104241	-0.109275	-1.122109	-0.229962	0.	0.	0.	-1.307950	1.161340	-0.704145	-0.906716	0.243842	1.876608	0.239564	-1.331738	0.150353	0.	0.	0.	-0.600773	2.873515	-1.335651	-0.675412	-0.445966	3.045938	0.817446	-1.593828	-1.821402	5.523922	12.496150	85.175659	-13.762771	5.085437	-87.174339	-1.610399	1.175466	-2.262929	1.690899	-2.355987	-2.437188	-1.746020	0.336085	3.681027	-1.739460	0.741519	3.389648	3.387475	-0.100266	38.457340	0.843026	-2.882304	-2.291129	-0.161194	1.239137	-5.690514	
0.008433	100.429702	0.031058	1.494173	0.026278	-2.575979	0.910489	-0.790115	-3.168253	-1.895832	2.140280	5.122325	-0.109275	-1.122109	-0.229962	0.	0.	0.	-1.300395	1.162447	-0.685067	-0.906716	0.243842	1.876608	0.239564	-1.331738	0.150353	0.	0.	0.	-0.593788	2.874858	-1.316568	-0.675412	-0.445966	3.045938	0.817446	-1.593828	-1.821402	5.523922	12.496150	85.175659	-13.762771	5.085437	-87.174339	-1.555977	1.205421	-2.333239	1.684941	-2.346478	-2.449167	-1.748223	0.283238	3.698127	-1.728143	0.784281	3.385332	3.381732	-0.095313	38.478832	0.982405	-2.766138	-2.324003	-0.296433	1.113893	-5.651818	
0.009009	100.428772	0.033198	1.490009	0.025671	-2.585888	0.911195	-0.792271	-3.184446	-1.893424	2.142719	5.148478	-0.109275	-1.122109	-0.229962	0.	0.	0.	-1.296463	1.163018	-0.675139	-0.906716	0.243842	1.876608	0.239564	-1.331738	0.150353	0.	0.	0.	-0.590154	2.875551	-1.306637	-0.675412	-0.445966	3.045938	0.817446	-1.593828	-1.821402	5.523922	12.496150	85.175659	-13.762387	5.083164	-87.179237	-1.519844	1.218216	-2.341382	1.681423	-2.340867	-2.456235	-1.749732	0.250875	3.708417	-1.721165	0.810678	3.382613	3.379016	-0.092963	38.488995	0.982405	-2.766138	-2.324003	-0.296455	1.106855	-5.652993	
